<svg xmlns="http://www.w3.org/2000/svg"
     width="300" height="300"
     viewBox="0 0 300 300">
  <path fill="transparent" d="M 147.00,10.44
           C 166.49,8.37 174.03,22.50 182.28,37.00
             182.28,37.00 193.80,57.00 193.80,57.00
             193.80,57.00 221.42,105.00 221.42,105.00
             221.42,105.00 271.72,192.00 271.72,192.00
             271.72,192.00 289.01,222.00 289.01,222.00
             294.34,231.08 299.41,237.99 298.96,249.00
             298.27,265.99 285.22,275.97 269.00,275.92
             269.00,275.92 62.00,275.92 62.00,275.92
             62.00,275.92 40.00,275.92 40.00,275.92
             40.00,275.92 24.00,275.92 24.00,275.92
             13.52,273.91 5.34,266.00 2.22,256.00
             1.18,252.68 0.90,249.46 1.04,246.00
             1.40,236.97 6.55,229.55 10.99,222.00
             10.99,222.00 30.00,189.00 30.00,189.00
             30.00,189.00 103.85,61.00 103.85,61.00
             103.85,61.00 120.01,33.00 120.01,33.00
             123.04,27.84 126.56,21.21 131.04,17.33
             136.12,12.93 140.61,11.63 147.00,10.44 Z" />
</svg>
